<?xml version="1.0" encoding="utf-8"?>
<!-- Generator: Adobe Illustrator 19.2.1, SVG Export Plug-In . SVG Version: 6.00 Build 0)  -->
<svg version="1.1" id="Layer_1" xmlns="http://www.w3.org/2000/svg" xmlns:xlink="http://www.w3.org/1999/xlink" x="0px" y="0px"
	 viewBox="0 0 985 400" style="enable-background:new 0 0 985 400;" xml:space="preserve">
<style type="text/css">
	.st0{fill:#6D6E71;}
	.st1{fill:#1B62AE;}
</style>
<path class="st0" d="M260.7,184.2l5.7-32.3h-12.6l-5.2,29.5h-13.4l-12.9-0.1c-0.1,0.6-0.4,4-0.4,4.6c0,2.3,0.8,4.3,2.3,5.8
	s3.5,2.3,5.9,2.3h19c2.7,0,5.2-1,7.5-2.9C258.9,189.2,260.2,186.9,260.7,184.2 M304.5,184.2l5.7-32.3h-12.6l-5.2,29.5H279l5.2-29.5
	h-12.6l-5.7,32.3c-0.1,0.6-0.1,1.1-0.1,1.7c0,2.3,0.8,4.3,2.3,5.8s3.5,2.3,5.9,2.3h19c2.7,0,5.2-1,7.5-2.9
	C302.6,189.2,304,186.9,304.5,184.2 M345.3,181.4h-22.5l5.2-29.5h-12.6l-7.5,42.2H343L345.3,181.4z M360,194l7.5-42.2h-12.6
	l-7.5,42.2H360z M391.7,194h12.5l-3.1-42.2h-19l-18,42.2h12.7l12.6-29.4L391.7,194z M460.8,181.4h-22.5l5.2-29.5h-12.6l-7.5,42.2
	h35.2L460.8,181.4z M489.3,194h12.5l-3.1-42.2h-19l-18,42.2h12.7l12.6-29.4L489.3,194z M549.6,161.7c0.1-0.6,0.1-1.1,0.1-1.7
	c0-2.3-0.8-4.3-2.3-5.8s-3.5-2.3-5.9-2.3h-28.8l-7.5,42.2h12.6l5.2-29.5h13.4l-5.2,29.5h12.6L549.6,161.7z M580.3,164.5l-3,16.9
	h-13.4l2.9-16.9H580.3z M593.4,161.7c0.1-0.6,0.1-1.1,0.1-1.7c0-2.3-0.8-4.3-2.3-5.8s-3.5-2.3-5.9-2.3h-28.8L549,194h28.8
	c2.7,0,5.2-1,7.5-2.9s3.6-4.2,4.1-7L593.4,161.7z M618.6,194h12.5l-3.1-42.2h-19L591,194h12.7l12.6-29.4L618.6,194z M674.8,184.2
	l5.7-32.3h-12.6l-5.2,29.5h-13.4l5.2-29.5h-12.6l-5.7,32.3c-0.1,0.6-0.1,1.1-0.1,1.7c0,2.3,0.8,4.3,2.3,5.8s3.5,2.3,5.9,2.3h19
	c2.7,0,5.2-1,7.5-2.9C673,189.2,674.3,186.9,674.8,184.2 M719,161.9l1.8-10.1h-35.1l-7.5,42.2h35.1l2-11.2h-22.5l0.9-6.1h22.5
	l1.7-8.7h-22.6l1.1-6.1L719,161.9L719,161.9z M750.3,163.3l-1.1,6h-12.8l0.9-6H750.3z M763,160c0-2.3-0.8-4.3-2.3-5.8
	s-3.5-2.3-5.9-2.3H726l-7.5,42.2h12.6l2.9-16.2h13.4l-2.8,16.2h12.6l2.9-16.2c0-0.2,0-0.5,0-0.7c0-1.2-0.6-2.6-1.9-4.2
	c2.2-1.8,3.4-3.5,3.6-4.9l1.1-6.3C762.9,161.1,763,160.6,763,160"/>
<path class="st1" d="M442.3,221.7h10.3l0.7-4.4h-10.1L442.3,221.7z M453.6,224.1h-12.8c-0.4,0-0.7-0.2-1-0.4c-0.2-0.3-0.3-0.7-0.3-1
	l1.3-6.9c0.1-0.6,0.6-1,1.2-1h12.6c0.4,0,0.7,0.2,0.9,0.4c0.2,0.3,0.3,0.6,0.3,1l-1.1,6.9C454.7,223.7,454.2,224.1,453.6,224.1
	 M450.5,245.7h10.1l2.7-15c0-0.2,0-0.3,0-0.5v-0.1c0-0.5-0.8-1.9-1.2-2.5c-0.5-0.9-0.7-1.3-0.7-1.7c0-0.6,0.3-1,1.3-2.1
	c0.6-0.7,2.2-2.4,2.3-3l1.1-6.3c0.1-0.5,0.1-1,0.1-1.5c0-2-0.6-3.6-2-5c-1.3-1.3-3-2-5-2L0,206v7.5h428.7c0.4,0,0.7,0.2,0.9,0.4
	c0.2,0.3,0.3,0.6,0.3,1l-5.4,30.8h10.1l2.7-15.1c0.1-0.6,0.6-1,1.2-1h13.4c0.4,0,0.7,0.2,0.9,0.4c0.2,0.3,0.3,0.6,0.3,1L450.5,245.7
	z M461.7,248.2H449c-0.4,0-0.7-0.2-0.9-0.4c-0.2-0.3-0.3-0.6-0.3-1l2.6-14.7h-10.9l-2.7,15.1c-0.1,0.6-0.6,1-1.2,1H423
	c-0.4,0-0.7-0.2-0.9-0.4c-0.2-0.3-0.3-0.6-0.3-1l5.4-30.8L0,215.9c0-1.7,0-10.9,0-12.4h459.3c2.7,0,5,0.9,6.8,2.7s2.7,4,2.7,6.7
	c0,0.6-0.1,1.3-0.2,1.9l-1.1,6.3c-0.2,1.2-1.4,2.6-2.9,4.2c-0.2,0.2-0.4,0.4-0.5,0.6c0.1,0.1,0.1,0.3,0.2,0.4
	c0.8,1.4,1.5,2.6,1.5,3.6c0,0.3,0,0.5,0,0.8c0,0.1,0,0.1,0,0.2l-2.9,16.2C462.8,247.7,462.3,248.2,461.7,248.2 M529.3,206
	c-2.4,0-4.6,0.8-6.7,2.6c-2.1,1.7-3.3,3.8-3.7,6.2l-3.9,22.5c-0.1,0.5-0.1,1-0.1,1.5c0,2,0.6,3.6,2,5c1.3,1.3,3,2,5,2h27.8l1.8-10.2
	h-24.6c-0.4,0-0.7-0.2-0.9-0.4c-0.2-0.3-0.3-0.6-0.3-1l3-16.9c0.1-0.6,0.6-1,1.2-1h25l1.8-10.2h-27.4V206z M550.7,248.2h-28.8
	c-2.7,0-5-0.9-6.8-2.7s-2.7-4-2.7-6.7c0-0.6,0.1-1.2,0.2-1.9l3.9-22.5c0.5-3,2-5.6,4.5-7.7c2.5-2.1,5.3-3.2,8.3-3.2h28.8
	c0.4,0,0.7,0.2,0.9,0.4c0.2,0.3,0.3,0.6,0.3,1l-2.3,12.7c-0.1,0.6-0.6,1-1.2,1h-25l-2.5,14.4h24.6c0.4,0,0.7,0.2,0.9,0.4
	c0.2,0.3,0.3,0.7,0.3,1l-2.3,12.7C551.8,247.7,551.3,248.2,550.7,248.2 M560.2,245.7h10.1l7-39.7h-10.1L560.2,245.7z M571.3,248.2
	h-12.6c-0.4,0-0.7-0.2-0.9-0.4c-0.2-0.3-0.3-0.6-0.3-1l7.5-42.2c0.1-0.6,0.6-1,1.2-1h12.6c0.4,0,0.7,0.2,0.9,0.4
	c0.2,0.3,0.3,0.6,0.3,1l-7.5,42.2C572.4,247.7,571.9,248.2,571.3,248.2 M607.7,245.7h10.1l5.5-31.3c0.1-0.5,0.1-1,0.1-1.5
	c0-2-0.6-3.6-2-5c-1.3-1.3-3-2-5-2h-27.8l-7,39.7h10.1l5-28.5c0.1-0.6,0.6-1,1.2-1h13.4c0.4,0,0.7,0.2,0.9,0.4
	c0.2,0.3,0.3,0.6,0.3,1L607.7,245.7z M618.8,248.2h-12.6c-0.4,0-0.7-0.2-0.9-0.4c-0.2-0.3-0.3-0.6-0.3-1l4.9-28.1H599l-5,28.5
	c-0.1,0.6-0.6,1-1.2,1h-12.6c-0.4,0-0.7-0.2-0.9-0.4c-0.2-0.3-0.3-0.6-0.3-1l7.5-42.2c0.1-0.6,0.6-1,1.2-1h28.8c2.7,0,5,0.9,6.8,2.7
	s2.7,4,2.7,6.7c0,0.6-0.1,1.3-0.2,1.9l-5.7,32.4C619.9,247.7,619.4,248.2,618.8,248.2 M643.3,206c-2.4,0-4.6,0.8-6.7,2.6
	c-2.1,1.7-3.3,3.8-3.7,6.2l-3.9,22.5c-0.1,0.5-0.1,1-0.1,1.5c0,2,0.6,3.6,2,5c1.3,1.3,3,2,5,2h19c2.4,0,4.6-0.8,6.7-2.6
	c2.1-1.7,3.3-3.8,3.7-6.2l2.5-12.4h-16.4l-0.8,3.7h4.4c0.4,0,0.7,0.2,0.9,0.4c0.2,0.3,0.3,0.6,0.3,1l-1,6c-0.1,0.6-0.6,1-1.2,1
	h-13.4c-0.4,0-0.7-0.2-0.9-0.4c-0.2-0.3-0.3-0.7-0.3-1l3.6-20.6c0.1-0.6,0.6-1,1.2-1h25.6h315.1V206H643.3z M654.9,248.2h-19
	c-2.7,0-5-0.9-6.8-2.7s-2.7-4-2.7-6.7c0-0.6,0.1-1.3,0.2-1.9l3.9-22.5c0.5-3,2-5.6,4.5-7.7c2.5-2.1,5.3-3.2,8.3-3.2H985
	c0,1.1,0,11.2,0,12.5l-339.7,0.1l-3.2,18.1H653l0.6-3.5h-4.5c-0.4,0-0.7-0.2-1-0.5c-0.2-0.3-0.3-0.7-0.3-1l1.3-6.2
	c0.1-0.6,0.6-1,1.2-1h18.9c0.4,0,0.7,0.2,1,0.5c0.2,0.3,0.3,0.7,0.3,1l-2.8,13.8c-0.5,3-2,5.5-4.5,7.7
	C660.7,247.1,657.9,248.2,654.9,248.2 M496.7,245.7h10l-2.9-39.7h-17l-16.9,39.7h10c0.9-2.1,3.3-8,5.8-14
	c6.5-15.5,6.5-15.5,7.5-15.5c1.2,0,1.3,1,1.4,2.4c0.1,0.8,0.2,2,0.3,3.4c0.2,2.4,0.5,5.9,0.8,10.1
	C496.1,237.7,496.5,243.3,496.7,245.7 M508,248.2h-12.5c-0.7,0-1.2-0.5-1.2-1.2c-0.5-7.7-1.3-18.9-1.8-25
	c-2.5,5.9-7.3,17.2-10.7,25.4c-0.2,0.5-0.6,0.8-1.1,0.8H468c-0.4,0-0.8-0.2-1-0.6c-0.2-0.3-0.3-0.8-0.1-1.2l18-42.2
	c0.2-0.5,0.6-0.8,1.1-0.8h19c0.6,0,1.2,0.5,1.2,1.1l3.1,42.2c0,0.3-0.1,0.7-0.3,0.9C508.7,248,508.3,248.2,508,248.2"/>
</svg>
