<svg width="100%" height="auto" viewBox="0 0 200 99" version="1.1" xmlns="http://www.w3.org/2000/svg" xmlns:xlink="http://www.w3.org/1999/xlink" >
    <g transform="translate(0.000000, 0.461538)">
        <path d="M81.6991605,1.01801865 L79.5697778,1.14839161 C57.5541728,5.48398601 50.9337284,12.5047086 43.2734815,20.6211189 C41.9460741,22.0274825 40.563358,23.4810023 39.0727901,24.965035 C31.5425185,32.4212587 13.4925432,32.5294406 5.77975309,32.571049 C2.91753086,32.5932401 2.07407407,32.6043357 1.50162963,32.8317949 C-0.193580247,33.5252681 -0.832395062,33.786014 7.89530864,59.8772494 C11.9909136,72.1101166 16.332642,84.4317483 16.3768889,84.5482517 L16.614716,85.2112121 L17.2728889,85.4608625 C17.6628148,85.6106527 22.6737778,87.4968998 29.6205432,87.4968998 C35.9174321,87.4968998 43.7933827,85.9462937 51.2462222,80.1599534 C56.7881481,75.8604196 59.9435062,71.1253846 62.9993086,66.5401399 C68.5191111,58.2628438 73.7817284,50.4404662 92.4594568,44.1548252 L113.999407,97.94338 L114.096198,98.0404662 L120.005926,96.5758508 L81.6991605,1.01801865 Z M72.3990123,5.95 L75.7590123,13.1205128 L57.2638025,21.8444056 L53.9038025,14.6711189 C58.2372346,11.2675524 63.7017284,8.33277389 72.3990123,5.95 L72.3990123,5.95 Z M35.5717531,30.9677389 L35.9948642,31.8664802 L18.8713086,39.9385082 L16.678321,35.2478555 C22.9116049,34.7707459 29.9994074,33.6445455 35.5717531,30.9677389 L35.5717531,30.9677389 Z M12.5854815,64.2655478 C10.7381728,58.8037529 8.93234568,53.3863403 7.43348148,48.7067832 L17.4139259,44.0022611 L24.3164444,58.7399534 L12.5854815,64.2655478 Z M23.5172346,83.8658741 L33.8129383,79.0115618 L36.025284,83.7465967 C31.1664198,84.6675291 26.7251358,84.3984615 23.5172346,83.8658741 L23.5172346,83.8658741 Z M46.2241975,50.1020513 L53.7738272,66.22669 L35.2813827,74.9505828 L33.8986667,75.5996737 L26.9961481,60.8619814 L26.6394074,60.1158042 L28,59.4001399 L46.2241975,50.1020513 L38.3814321,34.121655 L37.593284,32.7874126 L39.4074074,31.9441492 L56.5281975,23.8693473 L64.7277037,41.3698368 L46.2241975,50.1020513 Z M72.5289877,50.8510023 L68.1319506,41.4669231 L85.241679,33.4059907 L89.2709136,42.0106061 C81.8706173,44.6957343 76.5775802,47.6970862 72.5289877,50.8510023 L72.5289877,50.8510023 Z" fill="#0060bc"></path>
        <path d="M79.2794074,96.5869464 L85.1891358,98.0515618 L85.2859259,97.9517016 L106.825877,44.1659207 C125.503605,50.4515618 130.763457,58.2739394 136.283259,66.5512354 C139.341827,71.1364802 142.49442,75.8715152 148.036346,80.171049 C155.480889,85.9573893 163.365136,87.4968998 169.66479,87.5079953 C176.60879,87.5079953 181.622519,85.6217483 182.009679,85.4691841 L182.670617,85.2223077 L182.908444,84.5593473 C182.949926,84.4400699 187.29442,72.1212121 191.387259,59.888345 C200.114963,33.7971096 199.478914,33.5363636 197.783704,32.8428904 C197.208494,32.6043357 196.356741,32.5932401 193.50558,32.5821445 C185.79279,32.5377622 167.740049,32.4295804 160.212543,24.9761305 C158.721975,23.5031935 157.339259,22.0385781 156.020148,20.6322145 C148.359901,12.5158042 141.739457,5.50340326 119.71279,1.15948718 L117.586173,1.02911422 L79.2794074,96.5869464 Z M145.356642,14.6600233 L141.999407,21.83331 L123.504198,13.1121911 L126.864198,5.93890443 C135.561481,8.33277389 141.025975,11.2675524 145.356642,14.6600233 L145.356642,14.6600233 Z M182.573827,35.2478555 L180.369778,39.9385082 L163.246222,31.8664802 L163.669333,30.9677389 C169.252741,33.6445455 176.340543,34.7707459 182.573827,35.2478555 L182.573827,35.2478555 Z M174.935704,58.7399534 L181.838222,44.0022611 L191.818667,48.7067832 C190.317037,53.3863403 188.525037,58.8037529 186.666667,64.2655478 L174.935704,58.7399534 Z M163.224099,83.7465967 L165.43921,79.0115618 L175.745975,83.8658741 C172.527012,84.3984615 168.09679,84.6675291 163.224099,83.7465967 L163.224099,83.7465967 Z M134.532741,41.3809324 L142.732247,23.8804429 L159.855802,31.9552448 L161.658864,32.7985082 L160.870716,34.1327506 L153.027951,50.1131469 L171.252148,59.4112354 L172.612741,60.1268998 L172.256,60.8730769 L165.353481,75.6107692 L163.970765,74.9589044 L145.475556,66.2377855 L153.027951,50.1131469 L134.532741,41.3809324 Z M109.970173,41.9995105 L113.999407,33.3948951 L122.552889,37.4253613 L131.120198,41.4558275 L126.72316,50.8399068 C122.682864,47.6970862 117.389827,44.6957343 109.970173,41.9995105 L109.970173,41.9995105 Z" fill="#0060bc"></path>
    </g>
</svg>