<svg height="auto" viewBox="0 0 200 99" xmlns="http://www.w3.org/2000/svg"><g fill="#0060bc"><path d="M81.7 1.48l-2.13.13C57.554 5.946 50.934 12.966 43.273 21.083c-1.327 1.406-2.71 2.86-4.2 4.344-7.53 7.456-25.58 7.564-33.293 7.606-2.862.022-3.706.033-4.278.26-1.696.694-2.334.955 6.393 27.046 4.096 12.232 8.438 24.553 8.482 24.67l.238.663.658.25c.39.15 5.4 2.035 12.348 2.035 6.297 0 14.173-1.55 21.626-7.337 5.542-4.298 8.698-9.033 11.753-13.618 5.52-8.278 10.782-16.1 29.46-22.386L114 98.406l.096.096 5.91-1.465L81.7 1.48zm-9.3 4.932l3.36 7.17-18.496 8.724-3.36-7.173c4.333-3.404 9.798-6.34 18.495-8.72zM35.57 31.43l.423.898L18.87 40.4l-2.192-4.69c6.234-.478 13.32-1.604 18.894-4.28zM12.585 64.726c-1.847-5.462-3.653-10.88-5.152-15.56l9.98-4.703L24.317 59.2l-11.73 5.527zm10.932 19.6l10.296-4.854 2.212 4.735c-4.86.92-9.3.652-12.508.12zm22.707-33.763l7.55 16.124-18.493 8.724-1.38.65-6.904-14.738-.357-.747 1.36-.715 18.224-9.298-7.843-15.98-.787-1.335 1.814-.844 17.12-8.075 8.2 17.5-18.503 8.734zm26.305.75l-4.398-9.386 17.11-8.06 4.03 8.604c-7.4 2.685-12.694 5.687-16.743 8.84z"/><path d="M79.28 97.048l5.91 1.465.096-.1 21.54-53.786c18.678 6.286 23.937 14.108 29.457 22.386 3.06 4.585 6.21 9.32 11.753 13.62 7.445 5.786 15.33 7.325 21.63 7.337 6.943 0 11.957-1.887 12.344-2.04l.66-.246.238-.663c.042-.118 4.386-12.437 8.48-24.67 8.727-26.09 8.09-26.352 6.396-27.046-.576-.238-1.427-.25-4.278-.26-7.713-.045-25.766-.153-33.293-7.606-1.49-1.473-2.874-2.938-4.193-4.344-7.66-8.117-14.28-15.13-36.307-19.473l-2.127-.13L79.28 97.05zm66.077-81.926L142 22.295l-18.496-8.72 3.36-7.175c8.697 2.394 14.162 5.33 18.493 8.722zm37.217 20.587l-2.204 4.69-17.124-8.072.423-.9c5.583 2.678 12.67 3.804 18.904 4.28zm-7.638 23.49l6.902-14.736 9.98 4.704c-1.5 4.68-3.293 10.097-5.15 15.56L174.935 59.2zM163.224 84.21l2.215-4.735 10.306 4.854c-3.22.533-7.65.802-12.522-.12zm-28.69-42.366l8.198-17.5 17.124 8.075 1.803.843-.79 1.334-7.842 15.98 18.224 9.3 1.36.714-.356.747-6.903 14.737-1.382-.652-18.494-8.72 7.552-16.125-18.495-8.733zm-24.564.62l4.03-8.606 8.553 4.03 8.567 4.03-4.397 9.385c-4.04-3.14-9.333-6.143-16.753-8.84z"/></g></svg>