<?xml version="1.0" encoding="utf-8"?>
<!-- Generator: Adobe Illustrator 18.1.1, SVG Export Plug-In . SVG Version: 6.00 Build 0)  -->
<!DOCTYPE svg PUBLIC "-//W3C//DTD SVG 1.1//EN" "http://www.w3.org/Graphics/SVG/1.1/DTD/svg11.dtd">
<svg version="1.1" id="Layer_1" xmlns="http://www.w3.org/2000/svg" xmlns:xlink="http://www.w3.org/1999/xlink" x="0px" y="0px"
	 viewBox="0 0 1400 200" enable-background="new 0 0 1400 200" xml:space="preserve">
<g>
	<g>
		<g>
			<path fill="#6D6E71" d="M191.6,84.2l5.7-32.3h-12.6l-5.2,29.5H166l-12.9-0.1c-0.1,0.6-0.4,4-0.4,4.6c0,2.3,0.8,4.3,2.3,5.8
				c1.5,1.5,3.5,2.3,5.9,2.3h19c2.7,0,5.2-1,7.5-2.9C189.7,89.2,191.1,86.9,191.6,84.2 M235.3,84.2l5.7-32.3h-12.6l-5.2,29.5h-13.4
				l5.2-29.5h-12.6l-5.7,32.3c-0.1,0.6-0.1,1.1-0.1,1.7c0,2.3,0.8,4.3,2.3,5.8c1.5,1.5,3.5,2.3,5.9,2.3h19c2.7,0,5.2-1,7.5-2.9
				C233.5,89.2,234.9,86.9,235.3,84.2 M276.1,81.4h-22.5l5.2-29.5h-12.6L238.7,94h35.1L276.1,81.4z M290.8,94l7.5-42.2h-12.6
				L278.2,94H290.8z M322.6,94H335l-3.1-42.2h-19L295,94h12.7l12.6-29.4L322.6,94z M391.6,81.4h-22.5l5.2-29.5h-12.6L354.2,94h35.2
				L391.6,81.4z M420.2,94h12.5l-3.1-42.2h-19l-18,42.2h12.7l12.6-29.4L420.2,94z M480.5,61.7c0.1-0.6,0.1-1.1,0.1-1.7
				c0-2.3-0.8-4.3-2.3-5.8c-1.5-1.5-3.5-2.3-5.9-2.3h-28.8L436.1,94h12.6l5.2-29.5h13.4L462.1,94h12.6L480.5,61.7z M511.1,64.5
				l-3,16.9h-13.4l2.9-16.9H511.1z M524.2,61.7c0.1-0.6,0.1-1.1,0.1-1.7c0-2.3-0.8-4.3-2.3-5.8c-1.5-1.5-3.5-2.3-5.9-2.3h-28.8
				L479.9,94h28.8c2.7,0,5.2-1,7.5-2.9c2.3-1.9,3.6-4.2,4.1-7L524.2,61.7z M549.5,94H562l-3.1-42.2h-19l-18,42.2h12.7l12.6-29.4
				L549.5,94z M605.6,84.2l5.7-32.3h-12.6l-5.2,29.5h-13.4l5.2-29.5h-12.6L567,84.2c-0.1,0.6-0.1,1.1-0.1,1.7c0,2.3,0.8,4.3,2.3,5.8
				c1.5,1.5,3.5,2.3,5.9,2.3h19c2.7,0,5.2-1,7.5-2.9C603.8,89.2,605.2,86.9,605.6,84.2 M649.8,61.9l1.8-10.1h-35.1L609,94h35.1
				l2-11.2h-22.5l0.9-6.1H647l1.7-8.7h-22.6l1.1-6.1H649.8z M681.1,63.3l-1.1,6h-12.8l0.9-6L681.1,63.3z M693.8,60
				c0-2.3-0.8-4.3-2.3-5.8c-1.5-1.5-3.5-2.3-5.9-2.3h-28.8L649.3,94h12.6l2.9-16.2h13.4L675.3,94H688l2.9-16.2c0-0.2,0-0.5,0-0.7
				c0-1.2-0.6-2.6-1.9-4.2c2.2-1.8,3.4-3.5,3.6-4.9l1.1-6.3C693.8,61.1,693.8,60.6,693.8,60"/>
		</g>
		<g>
			<path fill="#1B62AE" d="M373.1,121.7h10.3l0.7-4.4H374L373.1,121.7z M384.5,124.1h-12.8c-0.4,0-0.7-0.2-1-0.4
				c-0.2-0.3-0.3-0.7-0.3-1l1.3-6.9c0.1-0.6,0.6-1,1.2-1h12.6c0.4,0,0.7,0.2,0.9,0.4c0.2,0.3,0.3,0.6,0.3,1l-1.1,6.9
				C385.6,123.7,385.1,124.1,384.5,124.1 M381.3,145.7h10.1l2.7-15c0-0.2,0-0.3,0-0.5c0,0,0-0.1,0-0.1c0-0.5-0.8-1.9-1.2-2.5
				c-0.5-0.9-0.7-1.3-0.7-1.7c0-0.6,0.3-1,1.3-2.1c0.6-0.7,2.2-2.4,2.3-3l1.1-6.3c0.1-0.5,0.1-1,0.1-1.5c0-2-0.6-3.6-2-5
				c-1.3-1.3-3-2-5-2l-393.1,0l-1.5,7.5l364,0c0.4,0,0.7,0.2,0.9,0.4c0.2,0.3,0.3,0.6,0.3,1l-5.4,30.8h10.1l2.7-15.1
				c0.1-0.6,0.6-1,1.2-1h13.4c0.4,0,0.7,0.2,0.9,0.4c0.2,0.3,0.3,0.6,0.3,1L381.3,145.7z M392.5,148.2h-12.6c-0.4,0-0.7-0.2-0.9-0.4
				c-0.2-0.3-0.3-0.6-0.3-1l2.6-14.7h-10.9l-2.7,15.1c-0.1,0.6-0.6,1-1.2,1h-12.6c-0.4,0-0.7-0.2-0.9-0.4c-0.2-0.3-0.3-0.6-0.3-1
				l5.4-30.8l-364.1,0c-0.4,0-0.7-0.2-1-0.5c-0.2-0.3-0.3-0.7-0.3-1l2.1-10c0.1-0.6,0.6-1,1.2-1l394.1,0c2.7,0,5,0.9,6.8,2.7
				c1.8,1.8,2.7,4,2.7,6.7c0,0.6-0.1,1.3-0.2,1.9l-1.1,6.3c-0.2,1.2-1.4,2.6-2.9,4.2c-0.2,0.2-0.4,0.4-0.5,0.6
				c0.1,0.1,0.1,0.3,0.2,0.4c0.8,1.4,1.5,2.6,1.5,3.6c0,0.3,0,0.5,0,0.8c0,0.1,0,0.1,0,0.2l-2.9,16.2
				C393.6,147.7,393.1,148.2,392.5,148.2 M460.1,106c-2.4,0-4.6,0.8-6.7,2.6c-2.1,1.7-3.3,3.8-3.7,6.2l-3.9,22.5
				c-0.1,0.5-0.1,1-0.1,1.5c0,2,0.6,3.6,2,5c1.3,1.3,3,2,5,2h27.8l1.8-10.2h-24.6c-0.4,0-0.7-0.2-0.9-0.4c-0.2-0.3-0.3-0.6-0.3-1
				l3-16.9c0.1-0.6,0.6-1,1.2-1h25l1.8-10.2H460.1z M481.5,148.2h-28.8c-2.7,0-5-0.9-6.8-2.7c-1.8-1.8-2.7-4-2.7-6.7
				c0-0.6,0.1-1.2,0.2-1.9l3.9-22.5c0.5-3,2-5.6,4.5-7.7c2.5-2.1,5.3-3.2,8.3-3.2H489c0.4,0,0.7,0.2,0.9,0.4c0.2,0.3,0.3,0.6,0.3,1
				l-2.3,12.7c-0.1,0.6-0.6,1-1.2,1h-25l-2.5,14.4h24.6c0.4,0,0.7,0.2,0.9,0.4c0.2,0.3,0.3,0.7,0.3,1l-2.3,12.7
				C482.6,147.7,482.1,148.2,481.5,148.2 M491,145.7h10.1l7-39.7H498L491,145.7z M502.2,148.2h-12.6c-0.4,0-0.7-0.2-0.9-0.4
				c-0.2-0.3-0.3-0.6-0.3-1l7.5-42.2c0.1-0.6,0.6-1,1.2-1h12.6c0.4,0,0.7,0.2,0.9,0.4c0.2,0.3,0.3,0.6,0.3,1l-7.5,42.2
				C503.3,147.7,502.8,148.2,502.2,148.2 M538.5,145.7h10.1l5.5-31.3c0.1-0.5,0.1-1,0.1-1.5c0-2-0.6-3.6-2-5c-1.3-1.3-3-2-5-2h-27.8
				l-7,39.7h10.1l5-28.5c0.1-0.6,0.6-1,1.2-1h13.4c0.4,0,0.7,0.2,0.9,0.4c0.2,0.3,0.3,0.6,0.3,1L538.5,145.7z M549.7,148.2H537
				c-0.4,0-0.7-0.2-0.9-0.4c-0.2-0.3-0.3-0.6-0.3-1l4.9-28.1h-10.9l-5,28.5c-0.1,0.6-0.6,1-1.2,1H511c-0.4,0-0.7-0.2-0.9-0.4
				c-0.2-0.3-0.3-0.6-0.3-1l7.5-42.2c0.1-0.6,0.6-1,1.2-1h28.8c2.7,0,5,0.9,6.8,2.7c1.8,1.8,2.7,4,2.7,6.7c0,0.6-0.1,1.3-0.2,1.9
				l-5.7,32.4C550.8,147.7,550.3,148.2,549.7,148.2 M574.2,106c-2.4,0-4.6,0.8-6.7,2.6c-2.1,1.7-3.3,3.8-3.7,6.2l-3.9,22.5
				c-0.1,0.5-0.1,1-0.1,1.5c0,2,0.6,3.6,2,5c1.3,1.3,3,2,5,2h19c2.4,0,4.6-0.8,6.7-2.6c2.1-1.7,3.3-3.8,3.7-6.2l2.5-12.4h-16.4
				l-0.8,3.7h4.4c0.4,0,0.7,0.2,0.9,0.4c0.2,0.3,0.3,0.6,0.3,1l-1,6c-0.1,0.6-0.6,1-1.2,1h-13.4c-0.4,0-0.7-0.2-0.9-0.4
				c-0.2-0.3-0.3-0.7-0.3-1l3.2-18.1c0.1-0.6,0.6-1,1.2-1h26l800.9-0.5l1.6-9.7H574.2z M585.7,148.2h-19c-2.7,0-5-0.9-6.8-2.7
				c-1.8-1.8-2.7-4-2.7-6.7c0-0.6,0.1-1.3,0.2-1.9l3.9-22.5c0.5-3,2-5.6,4.5-7.7c2.5-2.1,5.3-3.2,8.3-3.2h830.5
				c0.4,0,0.7,0.2,0.9,0.4c0.2,0.3,0.3,0.6,0.3,1l-2,12.2c-0.1,0.6-0.6,1-1.2,1l-802,0.5l-25,0l-2.8,15.6h10.9l0.6-3.5h-4.5
				c-0.4,0-0.7-0.2-1-0.5c-0.2-0.3-0.3-0.7-0.3-1l1.3-6.2c0.1-0.6,0.6-1,1.2-1h18.9c0.4,0,0.7,0.2,1,0.5c0.2,0.3,0.3,0.7,0.3,1
				l-2.8,13.8c-0.5,3-2,5.5-4.5,7.7C591.5,147.1,588.7,148.2,585.7,148.2 M427.5,145.7h10l-2.9-39.7h-17l-16.9,39.7h10
				c0.9-2.1,3.3-8,5.8-14c6.5-15.5,6.5-15.5,7.5-15.5c1.2,0,1.3,1,1.4,2.4c0.1,0.8,0.2,2,0.3,3.4c0.2,2.4,0.5,5.9,0.8,10.1
				C427,137.7,427.3,143.3,427.5,145.7 M438.8,148.2h-12.5c-0.7,0-1.2-0.5-1.2-1.2c-0.5-7.7-1.3-18.9-1.8-25
				c-2.5,5.9-7.3,17.2-10.7,25.4c-0.2,0.5-0.6,0.8-1.1,0.8h-12.7c-0.4,0-0.8-0.2-1-0.6c-0.2-0.3-0.3-0.8-0.1-1.2l18-42.2
				c0.2-0.5,0.6-0.8,1.1-0.8h19c0.6,0,1.2,0.5,1.2,1.1l3.1,42.2c0,0.3-0.1,0.7-0.3,0.9C439.5,148,439.2,148.2,438.8,148.2"/>
		</g>
	</g>
</g>
</svg>
