<svg xmlns="http://www.w3.org/2000/svg" viewBox="0 0 1400 200"><path fill="#6D6E71" d="M191.6 84.2l5.7-32.3h-12.6l-5.2 29.5H166l-12.9-.1c-.1.6-.4 4-.4 4.6 0 2.3.8 4.3 2.3 5.8 1.5 1.5 3.5 2.3 5.9 2.3h19c2.7 0 5.2-1 7.5-2.9s3.7-4.2 4.2-6.9m43.7 0l5.7-32.3h-12.6l-5.2 29.5h-13.4l5.2-29.5h-12.6l-5.7 32.3c-.1.6-.1 1.1-.1 1.7 0 2.3.8 4.3 2.3 5.8 1.5 1.5 3.5 2.3 5.9 2.3h19c2.7 0 5.2-1 7.5-2.9 2.2-1.9 3.6-4.2 4-6.9m40.8-2.8h-22.5l5.2-29.5h-12.6L238.7 94h35.1l2.3-12.6zM290.8 94l7.5-42.2h-12.6L278.2 94h12.6zm31.8 0H335l-3.1-42.2h-19L295 94h12.7l12.6-29.4 2.3 29.4zm69-12.6h-22.5l5.2-29.5h-12.6L354.2 94h35.2l2.2-12.6zM420.2 94h12.5l-3.1-42.2h-19l-18 42.2h12.7l12.6-29.4 2.3 29.4zm60.3-32.3c.1-.6.1-1.1.1-1.7 0-2.3-.8-4.3-2.3-5.8-1.5-1.5-3.5-2.3-5.9-2.3h-28.8L436.1 94h12.6l5.2-29.5h13.4L462.1 94h12.6l5.8-32.3zm30.6 2.8l-3 16.9h-13.4l2.9-16.9h13.5zm13.1-2.8c.1-.6.1-1.1.1-1.7 0-2.3-.8-4.3-2.3-5.8-1.5-1.5-3.5-2.3-5.9-2.3h-28.8L479.9 94h28.8c2.7 0 5.2-1 7.5-2.9s3.6-4.2 4.1-7l3.9-22.4zM549.5 94H562l-3.1-42.2h-19l-18 42.2h12.7l12.6-29.4 2.3 29.4zm56.1-9.8l5.7-32.3h-12.6l-5.2 29.5h-13.4l5.2-29.5h-12.6L567 84.2c-.1.6-.1 1.1-.1 1.7 0 2.3.8 4.3 2.3 5.8 1.5 1.5 3.5 2.3 5.9 2.3h19c2.7 0 5.2-1 7.5-2.9 2.2-1.9 3.6-4.2 4-6.9m44.2-22.3l1.8-10.1h-35.1L609 94h35.1l2-11.2h-22.5l.9-6.1H647l1.7-8.7h-22.6l1.1-6.1h22.6zm31.3 1.4l-1.1 6h-12.8l.9-6h13zm12.7-3.3c0-2.3-.8-4.3-2.3-5.8-1.5-1.5-3.5-2.3-5.9-2.3h-28.8L649.3 94h12.6l2.9-16.2h13.4L675.3 94H688l2.9-16.2v-.7c0-1.2-.6-2.6-1.9-4.2 2.2-1.8 3.4-3.5 3.6-4.9l1.1-6.3c.1-.6.1-1.1.1-1.7"/><path fill="#1B62AE" d="M373.1 121.7h10.3l.7-4.4H374l-.9 4.4zm11.4 2.4h-12.8c-.4 0-.7-.2-1-.4-.2-.3-.3-.7-.3-1l1.3-6.9c.1-.6.6-1 1.2-1h12.6c.4 0 .7.2.9.4.2.3.3.6.3 1l-1.1 6.9c0 .6-.5 1-1.1 1m-3.2 21.6h10.1l2.7-15v-.5-.1c0-.5-.8-1.9-1.2-2.5-.5-.9-.7-1.3-.7-1.7 0-.6.3-1 1.3-2.1.6-.7 2.2-2.4 2.3-3l1.1-6.3c.1-.5.1-1 .1-1.5 0-2-.6-3.6-2-5-1.3-1.3-3-2-5-2H-3.1l-1.5 7.5h364c.4 0 .7.2.9.4.2.3.3.6.3 1l-5.4 30.8h10.1l2.7-15.1c.1-.6.6-1 1.2-1h13.4c.4 0 .7.2.9.4.2.3.3.6.3 1l-2.5 14.7zm11.2 2.5h-12.6c-.4 0-.7-.2-.9-.4-.2-.3-.3-.6-.3-1l2.6-14.7h-10.9l-2.7 15.1c-.1.6-.6 1-1.2 1h-12.6c-.4 0-.7-.2-.9-.4-.2-.3-.3-.6-.3-1l5.4-30.8H-6c-.4 0-.7-.2-1-.5-.2-.3-.3-.7-.3-1l2.1-10c.1-.6.6-1 1.2-1h394.1c2.7 0 5 .9 6.8 2.7 1.8 1.8 2.7 4 2.7 6.7 0 .6-.1 1.3-.2 1.9l-1.1 6.3c-.2 1.2-1.4 2.6-2.9 4.2-.2.2-.4.4-.5.6.1.1.1.3.2.4.8 1.4 1.5 2.6 1.5 3.6v1l-2.9 16.2c-.1.6-.6 1.1-1.2 1.1m67.6-42.2c-2.4 0-4.6.8-6.7 2.6-2.1 1.7-3.3 3.8-3.7 6.2l-3.9 22.5c-.1.5-.1 1-.1 1.5 0 2 .6 3.6 2 5 1.3 1.3 3 2 5 2h27.8l1.8-10.2h-24.6c-.4 0-.7-.2-.9-.4-.2-.3-.3-.6-.3-1l3-16.9c.1-.6.6-1 1.2-1h25l1.8-10.2h-27.4zm21.4 42.2h-28.8c-2.7 0-5-.9-6.8-2.7-1.8-1.8-2.7-4-2.7-6.7 0-.6.1-1.2.2-1.9l3.9-22.5c.5-3 2-5.6 4.5-7.7 2.5-2.1 5.3-3.2 8.3-3.2H489c.4 0 .7.2.9.4.2.3.3.6.3 1l-2.3 12.7c-.1.6-.6 1-1.2 1h-25l-2.5 14.4h24.6c.4 0 .7.2.9.4.2.3.3.7.3 1l-2.3 12.7c-.1.6-.6 1.1-1.2 1.1m9.5-2.5h10.1l7-39.7H498l-7 39.7zm11.2 2.5h-12.6c-.4 0-.7-.2-.9-.4-.2-.3-.3-.6-.3-1l7.5-42.2c.1-.6.6-1 1.2-1h12.6c.4 0 .7.2.9.4.2.3.3.6.3 1l-7.5 42.2c-.1.5-.6 1-1.2 1m36.3-2.5h10.1l5.5-31.3c.1-.5.1-1 .1-1.5 0-2-.6-3.6-2-5-1.3-1.3-3-2-5-2h-27.8l-7 39.7h10.1l5-28.5c.1-.6.6-1 1.2-1h13.4c.4 0 .7.2.9.4.2.3.3.6.3 1l-4.8 28.2zm11.2 2.5H537c-.4 0-.7-.2-.9-.4-.2-.3-.3-.6-.3-1l4.9-28.1h-10.9l-5 28.5c-.1.6-.6 1-1.2 1H511c-.4 0-.7-.2-.9-.4-.2-.3-.3-.6-.3-1l7.5-42.2c.1-.6.6-1 1.2-1h28.8c2.7 0 5 .9 6.8 2.7 1.8 1.8 2.7 4 2.7 6.7 0 .6-.1 1.3-.2 1.9l-5.7 32.4c-.1.4-.6.9-1.2.9m24.5-42.2c-2.4 0-4.6.8-6.7 2.6-2.1 1.7-3.3 3.8-3.7 6.2l-3.9 22.5c-.1.5-.1 1-.1 1.5 0 2 .6 3.6 2 5 1.3 1.3 3 2 5 2h19c2.4 0 4.6-.8 6.7-2.6 2.1-1.7 3.3-3.8 3.7-6.2l2.5-12.4h-16.4l-.8 3.7h4.4c.4 0 .7.2.9.4.2.3.3.6.3 1l-1 6c-.1.6-.6 1-1.2 1h-13.4c-.4 0-.7-.2-.9-.4-.2-.3-.3-.7-.3-1l3.2-18.1c.1-.6.6-1 1.2-1h26l800.9-.5 1.6-9.7h-829zm11.5 42.2h-19c-2.7 0-5-.9-6.8-2.7-1.8-1.8-2.7-4-2.7-6.7 0-.6.1-1.3.2-1.9l3.9-22.5c.5-3 2-5.6 4.5-7.7 2.5-2.1 5.3-3.2 8.3-3.2h830.5c.4 0 .7.2.9.4.2.3.3.6.3 1l-2 12.2c-.1.6-.6 1-1.2 1l-802 .5h-25l-2.8 15.6h10.9l.6-3.5h-4.5c-.4 0-.7-.2-1-.5-.2-.3-.3-.7-.3-1l1.3-6.2c.1-.6.6-1 1.2-1h18.9c.4 0 .7.2 1 .5.2.3.3.7.3 1l-2.8 13.8c-.5 3-2 5.5-4.5 7.7-2.4 2.1-5.2 3.2-8.2 3.2m-158.2-2.5h10l-2.9-39.7h-17l-16.9 39.7h10c.9-2.1 3.3-8 5.8-14 6.5-15.5 6.5-15.5 7.5-15.5 1.2 0 1.3 1 1.4 2.4.1.8.2 2 .3 3.4.2 2.4.5 5.9.8 10.1.5 5.6.8 11.2 1 13.6m11.3 2.5h-12.5c-.7 0-1.2-.5-1.2-1.2-.5-7.7-1.3-18.9-1.8-25-2.5 5.9-7.3 17.2-10.7 25.4-.2.5-.6.8-1.1.8h-12.7c-.4 0-.8-.2-1-.6-.2-.3-.3-.8-.1-1.2l18-42.2c.2-.5.6-.8 1.1-.8h19c.6 0 1.2.5 1.2 1.1l3.1 42.2c0 .3-.1.7-.3.9-.3.4-.6.6-1 .6"/></svg>