<svg width="30px" height="30px" viewBox="0 0 14 14" version="1.1" xmlns="http://www.w3.org/2000/svg" xmlns:xlink="http://www.w3.org/1999/xlink">
    <path d="M10.2666667,8.4 C9.33333333,9.33333333 9.33333333,10.2666667 8.4,10.2666667 C7.46666667,10.2666667 6.53333333,9.33333333 5.6,8.4 C4.66666667,7.46666667 3.73333333,6.53333333 3.73333333,5.6 C3.73333333,4.66666667 4.66666667,4.66666667 5.6,3.73333333 C6.53333333,2.8 3.73333333,0 2.8,0 C1.86666667,0 0,2.8 0,2.8 C0,4.66666667 1.918,8.45133333 3.73333333,10.2666667 C5.54866667,12.082 9.33333333,14 11.2,14 C11.2,14 14,12.1333333 14,11.2 C14,10.2666667 11.2,7.46666667 10.2666667,8.4 L10.2666667,8.4 Z" fill="#0060BC"></path>
</svg>