<svg height="auto" viewBox="0 0 93 21" xmlns="http://www.w3.org/2000/svg"><title>race-car</title><g fill="#0060BC" fill-rule="evenodd"><path d="M47.34 4.635c-.545-1.163-1.728-1.914-3.012-1.914-.488 0-.962.108-1.41.317-.803.377-1.412 1.044-1.714 1.88-.217.6-.253 1.232-.12 1.84l6.69.81c.038-.124.07-.252.09-.39.097-.723-.084-1.602-.524-2.54zM9.508 7.13l.508-3.763c.055-.405-.234-.736-.643-.736H1.16c-.41 0-.743.336-.743.745v9.173c0 .41.334.743.743.743h2.48c.348-3.14 2.773-5.662 5.868-6.16z"/><path d="M55.333 8.135l-.01.005c.286.532.164.973.154 1.006-.183.607-.82 1.083-1.455 1.083H50.44c-.696 0-1.263-.57-1.263-1.265v-.18l-9.665-1.172c-.406-.05-.738-.424-.738-.833V4.598c0-.41.236-.743.524-.743.288 0 .524-.334.524-.743V.84c0-.41-.334-.743-.743-.743h-1.66c-.41 0-1.05.136-1.424.303L15.853 9.38c.885.986 1.497 2.224 1.712 3.59l1.554-.735c.805-.383 2.136-.71 3.03-.745l19.047-.756c1.104-.04 2.064.8 2.18 1.884l.647 6.132c.027.26.003.51-.066.746H60.7c.407 0 .58-.455.244-.69l-2.517-1.767c-.334-.236-.275-.46.132-.5l5.16-.516c-.18-.62-.277-1.276-.277-1.954 0-2.745 1.584-5.126 3.885-6.283h-10.6c-.407 0-1.037.156-1.397.348z"/><path d="M42.2 19.745c.24 0 .456-.09.603-.256.15-.167.217-.39.19-.633l-.648-6.132c-.056-.526-.533-.955-1.064-.955l-.037.002-19.05.756c-.746.03-1.95.325-2.625.646l-1.913.906c-.003 2.154-.98 4.084-2.513 5.372l27.047.293M91.525 12.6l-16.43-3.824c1.476 1.29 2.41 3.184 2.41 5.294 0 .214-.01.425-.028.633l8.698-.522c-.026.08-.043.164-.043.25v1.073h3.932v-1.557l1.442-.086c.408-.025.742-.28.742-.57 0-.287-.326-.6-.725-.69zM50.218 8.966c0 .12.103.223.223.223h3.584c.174 0 .393-.16.453-.326.023-.215-.246-.708-1.447-1.11-1.275-.424-1.978-.487-2.282-.487-.143 0-.207.014-.208.014-.15.05-.32.28-.32.463v1.222h-.002zM10.625 20.06c3.303 0 5.99-2.687 5.99-5.99 0-3.3-2.687-5.99-5.99-5.99-3.302 0-5.99 2.688-5.99 5.99 0 3.304 2.688 5.99 5.99 5.99zm0-9.23c1.79 0 3.24 1.452 3.24 3.24 0 1.79-1.45 3.242-3.24 3.242-1.79 0-3.24-1.45-3.24-3.24 0-1.79 1.45-3.242 3.24-3.242zm65.843 3.24c0-3.303-2.687-5.99-5.99-5.99-3.3 0-5.988 2.687-5.988 5.99 0 3.303 2.687 5.99 5.99 5.99 3.3 0 5.988-2.687 5.988-5.99zm-5.99 3.242c-1.79 0-3.24-1.45-3.24-3.24 0-1.79 1.45-3.242 3.24-3.242 1.79 0 3.242 1.452 3.242 3.24 0 1.79-1.45 3.242-3.24 3.242zm15.612-.77c-.455 0-1.156-.094-1.597-.214l-1.45-.396c-.352-.096-.957-.177-1.322-.177h-2.53c-.12 0-.223.102-.223.223v3.67c0 .12.102.222.223.222h11.27c.12 0 .224-.102.224-.223v-2.883c0-.12-.103-.223-.223-.223h-4.37v.003z"/></g></svg>