<svg xmlns="http://www.w3.org/2000/svg" viewBox="0 0 400 70"><path fill="#6D6E71" d="M32.4 23.5L36.5 0h-9.2l-3.8 21.4h-9.7l-9.4-.1c-.1.4-.3 2.9-.3 3.3 0 1.7.6 3.1 1.7 4.2s2.6 1.7 4.3 1.7H24c2 0 3.8-.7 5.4-2.1 1.6-1.3 2.6-3 3-4.9m31.7 0L68.3 0h-9.2l-3.8 21.4h-9.7L49.4 0h-9.2l-4.1 23.5c-.1.4-.1.8-.1 1.2 0 1.7.6 3.1 1.7 4.2s2.6 1.7 4.3 1.7h13.8c2 0 3.8-.7 5.4-2.1 1.6-1.4 2.6-3.1 2.9-5m29.7-2.1H77.4L81.2 0H72l-5.4 30.6h25.5l1.7-9.2zm10.6 9.2L109.8 0h-9.2l-5.4 30.6h9.2zm23.1 0h9.1L134.3 0h-13.8l-13.1 30.6h9.2l9.1-21.4 1.8 21.4zm50.1-9.2h-16.4L165 0h-9.2l-5.4 30.6H176l1.6-9.2zm20.7 9.2h9.1L205.2 0h-13.8l-13.1 30.6h9.2l9.1-21.4 1.7 21.4zm43.8-23.5c.1-.4.1-.8.1-1.2 0-1.7-.6-3.1-1.7-4.2S238 0 236.2 0h-20.9l-5.4 30.6h9.2l3.8-21.4h9.7l-3.8 21.4h9.2l4.1-23.5zm22.2 2.1l-2.1 12.2h-9.7l2.1-12.2h9.7zm9.6-2.1c.1-.4.1-.8.1-1.2 0-1.7-.6-3.1-1.7-4.2S269.7 0 268 0h-20.9l-5.4 30.6h20.9c2 0 3.8-.7 5.4-2.1 1.7-1.4 2.6-3.1 3-5.1l2.9-16.3zm18.3 23.5h9.1L299 0h-13.8l-13.1 30.6h9.2l9.1-21.4 1.8 21.4zm40.8-7.1L337.1 0h-9.2l-3.8 21.4h-9.7L318.2 0H309l-4.1 23.5c-.1.4-.1.8-.1 1.2 0 1.7.6 3.1 1.7 4.2s2.6 1.7 4.3 1.7h13.8c2 0 3.8-.7 5.4-2.1 1.6-1.4 2.6-3.1 3-5m32-16.2l1.3-7.3h-25.5l-5.4 30.6h25.5l1.4-8.2H346l.7-4.4H363l1.2-6.3h-16.4l.8-4.4H365zm22.7 1l-.8 4.4h-9.3l.7-4.3 9.4-.1zm9.3-2.4c0-1.7-.6-3.1-1.7-4.2S392.7 0 391 0h-20.9l-5.4 30.6h9.2l2.1-11.7h9.7l-2.1 11.7h9.2l2.1-11.7v-.5c0-.9-.5-1.9-1.4-3.1 1.6-1.3 2.4-2.5 2.6-3.6l.8-4.6c0-.4.1-.8.1-1.2"/><path fill="#1B62AE" d="M164.2 50.7h7.4l.5-3.2h-7.4l-.5 3.2zm8.2 1.8h-9.3c-.3 0-.5-.1-.7-.3-.2-.2-.2-.5-.2-.7l.9-5c.1-.4.5-.7.9-.7h9.2c.3 0 .5.1.7.3.2.2.2.5.2.7l-.8 5c-.1.4-.5.7-.9.7m-2.3 15.6h7.4l2-10.9v-.3-.1c0-.3-.6-1.4-.8-1.8-.4-.6-.5-.9-.5-1.3s.2-.7 1-1.5c.5-.5 1.6-1.8 1.6-2.2l.8-4.6c.1-.4.1-.7.1-1.1 0-1.5-.5-2.6-1.4-3.6-1-1-2.2-1.4-3.7-1.4H-3.7l-1.1 5.4h159.2c.3 0 .5.1.7.3.2.2.2.5.2.7L151.4 68h7.4l1.9-11c.1-.4.4-.7.9-.7h9.7c.3 0 .5.1.7.3.2.2.2.5.2.7l-2.1 10.8zm8.1 1.8H169c-.3 0-.5-.1-.7-.3-.2-.2-.2-.5-.2-.7l1.9-10.7h-7.9l-1.9 11c-.1.4-.4.7-.9.7h-9.2c-.3 0-.5-.1-.7-.3-.2-.2-.2-.5-.2-.7l3.9-22.3L-6 46.5c-.3 0-.5-.1-.7-.3-.2-.2-.2-.5-.2-.7l1.5-7.2c.1-.4.5-.7.9-.7h181c2 0 3.6.7 4.9 2 1.3 1.3 1.9 2.9 1.9 4.9 0 .5 0 .9-.1 1.4l-.8 4.6c-.1.8-1 1.9-2.1 3.1l-.4.4c.1.1.1.2.2.3.6 1 1.1 1.9 1.1 2.6v.8l-2.1 11.7c0 .2-.4.5-.9.5m49.1-30.6c-1.8 0-3.4.6-4.9 1.9-1.5 1.3-2.4 2.7-2.7 4.5L216.9 62c-.1.4-.1.7-.1 1.1 0 1.5.5 2.6 1.4 3.6 1 1 2.2 1.4 3.7 1.4h20.2l1.3-7.4h-17.8c-.3 0-.5-.1-.7-.3-.2-.2-.2-.5-.2-.7l2.1-12.2c.1-.4.4-.7.9-.7h18.1l1.3-7.4h-19.8zm15.6 30.6H222c-2 0-3.6-.7-4.9-2-1.3-1.3-1.9-2.9-1.9-4.9 0-.5 0-.9.1-1.4l2.9-16.3c.4-2.2 1.5-4.1 3.3-5.6 1.8-1.5 3.8-2.3 6-2.3h20.9c.3 0 .5.1.7.3.2.2.2.5.2.7l-1.6 9.2c-.1.4-.4.7-.9.7h-18.1l-1.8 10.5h17.8c.3 0 .5.1.7.3.2.2.2.5.2.7L244 69c-.3.6-.7.9-1.1.9m6.9-1.8h7.4l5.1-28.8h-7.4l-5.1 28.8zm8.1 1.8h-9.2c-.3 0-.5-.1-.7-.3-.2-.2-.2-.5-.2-.7l5.4-30.6c.1-.4.4-.7.9-.7h9.2c.3 0 .5.1.7.3.2.2.2.5.2.7l-5.4 30.6c-.1.4-.5.7-.9.7m26.3-1.8h7.4l4-22.7c.1-.4.1-.7.1-1.1 0-1.5-.5-2.6-1.4-3.6-1-1-2.2-1.4-3.7-1.4h-20.2l-5.1 28.8h7.4l3.7-20.7c.1-.4.4-.7.9-.7h9.7c.3 0 .5.1.7.3.2.2.2.5.2.7l-3.7 20.4zm8.1 1.8h-9.2c-.3 0-.5-.1-.7-.3-.2-.2-.2-.5-.2-.7l3.6-20.4H278l-3.7 20.7c-.1.4-.4.7-.9.7h-9.2c-.3 0-.5-.1-.7-.3-.2-.2-.2-.5-.2-.7l5.4-30.6c.1-.4.4-.7.9-.7h20.9c2 0 3.6.7 4.9 2 1.3 1.3 1.9 2.9 1.9 4.9 0 .5 0 .9-.1 1.4l-4.1 23.5c0 .2-.3.5-.8.5m17.8-30.6c-1.8 0-3.4.6-4.9 1.9-1.5 1.3-2.4 2.7-2.7 4.5L299.7 62c-.1.4-.1.7-.1 1.1 0 1.5.5 2.6 1.4 3.6 1 1 2.2 1.4 3.7 1.4h13.8c1.8 0 3.4-.6 4.9-1.9 1.5-1.3 2.4-2.7 2.7-4.5l1.8-9H316l-.6 2.7h3.2c.3 0 .5.1.7.3.2.2.2.5.2.7l-.7 4.4c-.1.4-.4.8-.9.8h-9.7c-.3 0-.5-.1-.7-.3-.2-.2-.2-.5-.2-.7l2.3-13.1c.1-.4.4-.7.9-.7h18.9l75.1-.3 1.2-7.1h-95.6zm8.4 30.6h-13.8c-2 0-3.6-.7-4.9-2-1.3-1.3-1.9-2.9-1.9-4.9 0-.5 0-.9.1-1.4l2.9-16.3c.4-2.2 1.5-4.1 3.3-5.6 1.8-1.5 3.8-2.3 6-2.3h96.6c.3 0 .5.1.7.3.2.2.2.5.2.7l-1.5 8.8c-.1.4-.4.7-.9.8l-75.9.3h-18.1l-2 11.3h7.9l.4-2.6h-3.3c-.3 0-.5-.1-.7-.3-.2-.2-.2-.5-.2-.7l.9-4.5c.1-.4.5-.7.9-.7H329c.3 0 .5.1.7.3.2.2.2.5.2.7l-2.1 10c-.4 2.2-1.5 4-3.3 5.6-1.8 1.7-3.8 2.5-6 2.5m-114.9-1.8h7.3l-2.1-28.8h-12.4l-12.3 28.8h7.3c.6-1.5 2.4-5.8 4.2-10.1 4.7-11.2 4.7-11.2 5.5-11.2.8 0 .9.8 1 1.7.1.6.1 1.4.2 2.4.2 1.8.3 4.2.6 7.4.3 4 .6 8.1.7 9.8m8.3 1.8h-9.1c-.5 0-.9-.4-.9-.8-.4-5.6-1-13.7-1.3-18.1-1.8 4.3-5.3 12.5-7.8 18.4-.1.3-.5.6-.8.6h-9.2c-.3 0-.6-.2-.7-.4-.2-.3-.2-.6-.1-.8l13-30.7c.1-.3.5-.5.8-.5h13.8c.5 0 .9.4.9.8l2.2 30.6c0 .2-.1.5-.2.7-.1.1-.4.2-.6.2"/></svg>