<?xml version="1.0" encoding="utf-8"?>
<!-- Generator: Adobe Illustrator 18.1.1, SVG Export Plug-In . SVG Version: 6.00 Build 0)  -->
<!DOCTYPE svg PUBLIC "-//W3C//DTD SVG 1.1//EN" "http://www.w3.org/Graphics/SVG/1.1/DTD/svg11.dtd">
<svg version="1.1" id="Layer_1" xmlns="http://www.w3.org/2000/svg" xmlns:xlink="http://www.w3.org/1999/xlink" x="0px" y="0px"
	 viewBox="0 0 768 70" enable-background="new 0 0 768 70" xml:space="preserve">
<g>
	<g>
		<g>
			<path fill="#6D6E71" d="M178.4,23.5L182.5,0h-9.2l-3.8,21.4h-9.7l-9.4-0.1c-0.1,0.4-0.3,2.9-0.3,3.3c0,1.7,0.6,3.1,1.7,4.2
				c1.1,1.1,2.6,1.7,4.3,1.7H170c2,0,3.8-0.7,5.4-2.1C177,27.1,178,25.4,178.4,23.5 M210.1,23.5L214.3,0h-9.2l-3.8,21.4h-9.7
				L195.4,0h-9.2l-4.1,23.5c-0.1,0.4-0.1,0.8-0.1,1.2c0,1.7,0.6,3.1,1.7,4.2c1.1,1.1,2.6,1.7,4.3,1.7h13.8c2,0,3.8-0.7,5.4-2.1
				C208.8,27.1,209.8,25.4,210.1,23.5 M239.8,21.4h-16.4L227.2,0H218l-5.4,30.6h25.5L239.8,21.4z M250.4,30.6L255.8,0h-9.2
				l-5.4,30.6H250.4z M273.5,30.6h9.1L280.3,0h-13.8l-13.1,30.6h9.2l9.1-21.4L273.5,30.6z M323.6,21.4h-16.4L311,0h-9.2l-5.4,30.6
				H322L323.6,21.4z M344.3,30.6h9.1L351.2,0h-13.8l-13.1,30.6h9.2l9.1-21.4L344.3,30.6z M388.1,7.1c0.1-0.4,0.1-0.8,0.1-1.2
				c0-1.7-0.6-3.1-1.7-4.2C385.4,0.6,384,0,382.2,0h-20.9l-5.4,30.6h9.2l3.8-21.4h9.7l-3.8,21.4h9.2L388.1,7.1z M410.3,9.2
				l-2.1,12.2h-9.7l2.1-12.2H410.3z M419.9,7.1c0.1-0.4,0.1-0.8,0.1-1.2c0-1.7-0.6-3.1-1.7-4.2C417.2,0.6,415.7,0,414,0h-20.9
				l-5.4,30.6h20.9c2,0,3.8-0.7,5.4-2.1c1.7-1.4,2.6-3.1,3-5.1L419.9,7.1z M438.2,30.6h9.1L445,0h-13.8l-13.1,30.6h9.2l9.1-21.4
				L438.2,30.6z M479,23.5L483.1,0h-9.2l-3.8,21.4h-9.7L464.2,0H455l-4.1,23.5c-0.1,0.4-0.1,0.8-0.1,1.2c0,1.7,0.6,3.1,1.7,4.2
				c1.1,1.1,2.6,1.7,4.3,1.7h13.8c2,0,3.8-0.7,5.4-2.1C477.6,27.1,478.6,25.4,479,23.5 M511,7.3l1.3-7.3h-25.5l-5.4,30.6h25.5
				l1.4-8.2H492l0.7-4.4H509l1.2-6.3h-16.4l0.8-4.4H511z M533.7,8.3l-0.8,4.4h-9.3l0.7-4.3L533.7,8.3z M543,5.9
				c0-1.7-0.6-3.1-1.7-4.2C540.2,0.6,538.7,0,537,0h-20.9l-5.4,30.6h9.2l2.1-11.7h9.7l-2.1,11.7h9.2l2.1-11.7c0-0.2,0-0.3,0-0.5
				c0-0.9-0.5-1.9-1.4-3.1c1.6-1.3,2.4-2.5,2.6-3.6l0.8-4.6C542.9,6.7,543,6.3,543,5.9"/>
		</g>
		<g>
			<path fill="#1B62AE" d="M310.2,50.7h7.4l0.5-3.2h-7.4L310.2,50.7z M318.4,52.5h-9.3c-0.3,0-0.5-0.1-0.7-0.3
				c-0.2-0.2-0.2-0.5-0.2-0.7l0.9-5c0.1-0.4,0.5-0.7,0.9-0.7h9.2c0.3,0,0.5,0.1,0.7,0.3c0.2,0.2,0.2,0.5,0.2,0.7l-0.8,5
				C319.2,52.2,318.8,52.5,318.4,52.5 M316.1,68.1h7.4l2-10.9c0-0.1,0-0.2,0-0.3c0,0,0-0.1,0-0.1c0-0.3-0.6-1.4-0.8-1.8
				c-0.4-0.6-0.5-0.9-0.5-1.3c0-0.4,0.2-0.7,1-1.5c0.5-0.5,1.6-1.8,1.6-2.2l0.8-4.6c0.1-0.4,0.1-0.7,0.1-1.1c0-1.5-0.5-2.6-1.4-3.6
				c-1-1-2.2-1.4-3.7-1.4l-324.9,0l-1.1,5.4l303.8,0c0.3,0,0.5,0.1,0.7,0.3c0.2,0.2,0.2,0.5,0.2,0.7l-3.9,22.3h7.4l1.9-11
				c0.1-0.4,0.4-0.7,0.9-0.7h9.7c0.3,0,0.5,0.1,0.7,0.3c0.2,0.2,0.2,0.5,0.2,0.7L316.1,68.1z M324.2,69.9h-9.2
				c-0.3,0-0.5-0.1-0.7-0.3c-0.2-0.2-0.2-0.5-0.2-0.7l1.9-10.7h-7.9l-1.9,11c-0.1,0.4-0.4,0.7-0.9,0.7h-9.2c-0.3,0-0.5-0.1-0.7-0.3
				c-0.2-0.2-0.2-0.5-0.2-0.7l3.9-22.3l-303.9,0c-0.3,0-0.5-0.1-0.7-0.3c-0.2-0.2-0.2-0.5-0.2-0.7l1.5-7.2c0.1-0.4,0.5-0.7,0.9-0.7
				l325.7,0c2,0,3.6,0.7,4.9,2c1.3,1.3,1.9,2.9,1.9,4.9c0,0.5,0,0.9-0.1,1.4l-0.8,4.6c-0.1,0.8-1,1.9-2.1,3.1
				c-0.1,0.1-0.3,0.3-0.4,0.4c0.1,0.1,0.1,0.2,0.2,0.3c0.6,1,1.1,1.9,1.1,2.6c0,0.2,0,0.4,0,0.6c0,0.1,0,0.1,0,0.2l-2.1,11.7
				C325.1,69.6,324.7,69.9,324.2,69.9 M373.3,39.3c-1.8,0-3.4,0.6-4.9,1.9c-1.5,1.3-2.4,2.7-2.7,4.5L362.9,62
				c-0.1,0.4-0.1,0.7-0.1,1.1c0,1.5,0.5,2.6,1.4,3.6c1,1,2.2,1.4,3.7,1.4h20.2l1.3-7.4h-17.8c-0.3,0-0.5-0.1-0.7-0.3
				c-0.2-0.2-0.2-0.5-0.2-0.7l2.1-12.2c0.1-0.4,0.4-0.7,0.9-0.7h18.1l1.3-7.4H373.3z M388.9,69.9h-20.9c-2,0-3.6-0.7-4.9-2
				c-1.3-1.3-1.9-2.9-1.9-4.9c0-0.5,0-0.9,0.1-1.4l2.9-16.3c0.4-2.2,1.5-4.1,3.3-5.6c1.8-1.5,3.8-2.3,6-2.3h20.9
				c0.3,0,0.5,0.1,0.7,0.3c0.2,0.2,0.2,0.5,0.2,0.7l-1.6,9.2c-0.1,0.4-0.4,0.7-0.9,0.7h-18.1l-1.8,10.5h17.8c0.3,0,0.5,0.1,0.7,0.3
				c0.2,0.2,0.2,0.5,0.2,0.7l-1.6,9.2C389.7,69.6,389.3,69.9,388.9,69.9 M395.8,68.1h7.4l5.1-28.8h-7.4L395.8,68.1z M403.9,69.9
				h-9.2c-0.3,0-0.5-0.1-0.7-0.3c-0.2-0.2-0.2-0.5-0.2-0.7l5.4-30.6c0.1-0.4,0.4-0.7,0.9-0.7h9.2c0.3,0,0.5,0.1,0.7,0.3
				c0.2,0.2,0.2,0.5,0.2,0.7l-5.4,30.6C404.7,69.6,404.3,69.9,403.9,69.9 M430.2,68.1h7.4l4-22.7c0.1-0.4,0.1-0.7,0.1-1.1
				c0-1.5-0.5-2.6-1.4-3.6c-1-1-2.2-1.4-3.7-1.4h-20.2l-5.1,28.8h7.4l3.7-20.7c0.1-0.4,0.4-0.7,0.9-0.7h9.7c0.3,0,0.5,0.1,0.7,0.3
				c0.2,0.2,0.2,0.5,0.2,0.7L430.2,68.1z M438.3,69.9h-9.2c-0.3,0-0.5-0.1-0.7-0.3c-0.2-0.2-0.2-0.5-0.2-0.7l3.6-20.4H424l-3.7,20.7
				c-0.1,0.4-0.4,0.7-0.9,0.7h-9.2c-0.3,0-0.5-0.1-0.7-0.3c-0.2-0.2-0.2-0.5-0.2-0.7l5.4-30.6c0.1-0.4,0.4-0.7,0.9-0.7h20.9
				c2,0,3.6,0.7,4.9,2c1.3,1.3,1.9,2.9,1.9,4.9c0,0.5,0,0.9-0.1,1.4l-4.1,23.5C439.1,69.6,438.8,69.9,438.3,69.9 M456.1,39.3
				c-1.8,0-3.4,0.6-4.9,1.9c-1.5,1.3-2.4,2.7-2.7,4.5L445.7,62c-0.1,0.4-0.1,0.7-0.1,1.1c0,1.5,0.5,2.6,1.4,3.6c1,1,2.2,1.4,3.7,1.4
				h13.8c1.8,0,3.4-0.6,4.9-1.9c1.5-1.3,2.4-2.7,2.7-4.5l1.8-9H462l-0.6,2.7h3.2c0.3,0,0.5,0.1,0.7,0.3c0.2,0.2,0.2,0.5,0.2,0.7
				l-0.7,4.4c-0.1,0.4-0.4,0.8-0.9,0.8h-9.7c-0.3,0-0.5-0.1-0.7-0.3c-0.2-0.2-0.2-0.5-0.2-0.7l2.3-13.1c0.1-0.4,0.4-0.7,0.9-0.7
				h18.9l296.7-0.3l1.2-7.1H456.1z M464.5,69.9h-13.8c-2,0-3.6-0.7-4.9-2c-1.3-1.3-1.9-2.9-1.9-4.9c0-0.5,0-0.9,0.1-1.4l2.9-16.3
				c0.4-2.2,1.5-4.1,3.3-5.6c1.8-1.5,3.8-2.3,6-2.3h318.2c0.3,0,0.5,0.1,0.7,0.3c0.2,0.2,0.2,0.5,0.2,0.7l-1.5,8.8
				c-0.1,0.4-0.4,0.7-0.9,0.8l-297.5,0.3l-18.1,0l-2,11.3h7.9l0.4-2.6h-3.3c-0.3,0-0.5-0.1-0.7-0.3c-0.2-0.2-0.2-0.5-0.2-0.7
				l0.9-4.5c0.1-0.4,0.5-0.7,0.9-0.7H475c0.3,0,0.5,0.1,0.7,0.3c0.2,0.2,0.2,0.5,0.2,0.7l-2.1,10c-0.4,2.2-1.5,4-3.3,5.6
				C468.7,69.1,466.7,69.9,464.5,69.9 M349.6,68.1h7.3l-2.1-28.8h-12.4l-12.3,28.8h7.3c0.6-1.5,2.4-5.8,4.2-10.1
				c4.7-11.2,4.7-11.2,5.5-11.2c0.8,0,0.9,0.8,1,1.7c0.1,0.6,0.1,1.4,0.2,2.4c0.2,1.8,0.3,4.2,0.6,7.4
				C349.2,62.3,349.5,66.4,349.6,68.1 M357.9,69.9h-9.1c-0.5,0-0.9-0.4-0.9-0.8c-0.4-5.6-1-13.7-1.3-18.1
				c-1.8,4.3-5.3,12.5-7.8,18.4c-0.1,0.3-0.5,0.6-0.8,0.6h-9.2c-0.3,0-0.6-0.2-0.7-0.4c-0.2-0.3-0.2-0.6-0.1-0.8L341,38.1
				c0.1-0.3,0.5-0.5,0.8-0.5h13.8c0.5,0,0.9,0.4,0.9,0.8l2.2,30.6c0,0.2-0.1,0.5-0.2,0.7C358.4,69.8,358.1,69.9,357.9,69.9"/>
		</g>
	</g>
</g>
</svg>
