<?xml version="1.0" encoding="utf-8"?>
<!-- Generator: Adobe Illustrator 18.1.1, SVG Export Plug-In . SVG Version: 6.00 Build 0)  -->
<!DOCTYPE svg PUBLIC "-//W3C//DTD SVG 1.1//EN" "http://www.w3.org/Graphics/SVG/1.1/DTD/svg11.dtd">
<svg version="1.1" id="Layer_1" xmlns="http://www.w3.org/2000/svg" xmlns:xlink="http://www.w3.org/1999/xlink" x="0px" y="0px"
	 viewBox="0 0 1600 70" enable-background="new 0 0 1600 70" xml:space="preserve">
<g>
	<g>
		<g>
			<path fill="#6D6E71" d="M227.9,23.5L232,0h-9.2l-3.8,21.4h-9.7l-9.4-0.1c-0.1,0.4-0.3,2.9-0.3,3.3c0,1.7,0.6,3.1,1.7,4.2
				c1.1,1.1,2.6,1.7,4.3,1.7h13.8c2,0,3.8-0.7,5.4-2.1C226.5,27.1,227.5,25.4,227.9,23.5 M259.6,23.5L263.8,0h-9.2l-3.8,21.4h-9.7
				L244.9,0h-9.2l-4.1,23.5c-0.1,0.4-0.1,0.8-0.1,1.2c0,1.7,0.6,3.1,1.7,4.2c1.1,1.1,2.6,1.7,4.3,1.7h13.8c2,0,3.8-0.7,5.4-2.1
				C258.3,27.1,259.3,25.4,259.6,23.5 M289.3,21.4h-16.4L276.7,0h-9.2l-5.4,30.6h25.5L289.3,21.4z M299.9,30.6L305.3,0h-9.2
				l-5.4,30.6H299.9z M323,30.6h9.1L329.8,0H316l-13.1,30.6h9.2l9.1-21.4L323,30.6z M373.1,21.4h-16.4L360.5,0h-9.2L346,30.6h25.5
				L373.1,21.4z M393.8,30.6h9.1L400.7,0h-13.8l-13.1,30.6h9.2l9.1-21.4L393.8,30.6z M437.6,7.1c0.1-0.4,0.1-0.8,0.1-1.2
				c0-1.7-0.6-3.1-1.7-4.2c-1.1-1.1-2.6-1.7-4.3-1.7h-20.9l-5.4,30.6h9.2l3.8-21.4h9.7l-3.8,21.4h9.2L437.6,7.1z M459.8,9.2
				l-2.1,12.2H448l2.1-12.2H459.8z M469.4,7.1c0.1-0.4,0.1-0.8,0.1-1.2c0-1.7-0.6-3.1-1.7-4.2c-1.1-1.1-2.6-1.7-4.3-1.7h-20.9
				l-5.4,30.6h20.9c2,0,3.8-0.7,5.4-2.1c1.7-1.4,2.6-3.1,3-5.1L469.4,7.1z M487.7,30.6h9.1L494.5,0h-13.8l-13.1,30.6h9.2L486,9.3
				L487.7,30.6z M528.5,23.5L532.6,0h-9.2l-3.8,21.4h-9.7L513.7,0h-9.2l-4.1,23.5c-0.1,0.4-0.1,0.8-0.1,1.2c0,1.7,0.6,3.1,1.7,4.2
				c1.1,1.1,2.6,1.7,4.3,1.7H520c2,0,3.8-0.7,5.4-2.1C527.1,27.1,528.1,25.4,528.5,23.5 M560.5,7.3l1.3-7.3h-25.5l-5.4,30.6h25.5
				l1.4-8.2h-16.4l0.7-4.4h16.4l1.2-6.3h-16.4l0.8-4.4H560.5z M583.2,8.3l-0.8,4.4h-9.3l0.7-4.3L583.2,8.3z M592.5,5.9
				c0-1.7-0.6-3.1-1.7-4.2c-1.1-1.1-2.6-1.7-4.3-1.7h-20.9l-5.4,30.6h9.2l2.1-11.7h9.7L579,30.6h9.2l2.1-11.7c0-0.2,0-0.3,0-0.5
				c0-0.9-0.5-1.9-1.4-3.1c1.6-1.3,2.4-2.5,2.6-3.6l0.8-4.6C592.4,6.7,592.5,6.3,592.5,5.9"/>
		</g>
		<g>
			<path fill="#1B62AE" d="M359.7,50.7h7.4l0.5-3.2h-7.4L359.7,50.7z M367.9,52.5h-9.3c-0.3,0-0.5-0.1-0.7-0.3
				c-0.2-0.2-0.2-0.5-0.2-0.7l0.9-5c0.1-0.4,0.5-0.7,0.9-0.7h9.2c0.3,0,0.5,0.1,0.7,0.3c0.2,0.2,0.2,0.5,0.2,0.7l-0.8,5
				C368.7,52.2,368.3,52.5,367.9,52.5 M365.6,68.1h7.4l2-10.9c0-0.1,0-0.2,0-0.3c0,0,0-0.1,0-0.1c0-0.3-0.6-1.4-0.8-1.8
				c-0.4-0.6-0.5-0.9-0.5-1.3c0-0.4,0.2-0.7,1-1.5c0.5-0.5,1.6-1.8,1.6-2.2l0.8-4.6c0.1-0.4,0.1-0.7,0.1-1.1c0-1.5-0.5-2.6-1.4-3.6
				c-1-1-2.2-1.4-3.7-1.4l-375.8,0l-1.1,5.4l354.7,0c0.3,0,0.5,0.1,0.7,0.3c0.2,0.2,0.2,0.5,0.2,0.7l-3.9,22.3h7.4l1.9-11
				c0.1-0.4,0.4-0.7,0.9-0.7h9.7c0.3,0,0.5,0.1,0.7,0.3c0.2,0.2,0.2,0.5,0.2,0.7L365.6,68.1z M373.7,69.9h-9.2
				c-0.3,0-0.5-0.1-0.7-0.3c-0.2-0.2-0.2-0.5-0.2-0.7l1.9-10.7h-7.9l-1.9,11c-0.1,0.4-0.4,0.7-0.9,0.7h-9.2c-0.3,0-0.5-0.1-0.7-0.3
				c-0.2-0.2-0.2-0.5-0.2-0.7l3.9-22.3L-6,46.5c-0.3,0-0.5-0.1-0.7-0.3c-0.2-0.2-0.2-0.5-0.2-0.7l1.5-7.2c0.1-0.4,0.5-0.7,0.9-0.7
				l376.5,0c2,0,3.6,0.7,4.9,2c1.3,1.3,1.9,2.9,1.9,4.9c0,0.5,0,0.9-0.1,1.4l-0.8,4.6c-0.1,0.8-1,1.9-2.1,3.1
				c-0.1,0.1-0.3,0.3-0.4,0.4c0.1,0.1,0.1,0.2,0.2,0.3c0.6,1,1.1,1.9,1.1,2.6c0,0.2,0,0.4,0,0.6c0,0.1,0,0.1,0,0.2l-2.1,11.7
				C374.6,69.6,374.2,69.9,373.7,69.9 M422.8,39.3c-1.8,0-3.4,0.6-4.9,1.9c-1.5,1.3-2.4,2.7-2.7,4.5L412.4,62
				c-0.1,0.4-0.1,0.7-0.1,1.1c0,1.5,0.5,2.6,1.4,3.6c1,1,2.2,1.4,3.7,1.4h20.2l1.3-7.4h-17.8c-0.3,0-0.5-0.1-0.7-0.3
				c-0.2-0.2-0.2-0.5-0.2-0.7l2.1-12.2c0.1-0.4,0.4-0.7,0.9-0.7h18.1l1.3-7.4H422.8z M438.4,69.9h-20.9c-2,0-3.6-0.7-4.9-2
				c-1.3-1.3-1.9-2.9-1.9-4.9c0-0.5,0-0.9,0.1-1.4l2.9-16.3c0.4-2.2,1.5-4.1,3.3-5.6c1.8-1.5,3.8-2.3,6-2.3h20.9
				c0.3,0,0.5,0.1,0.7,0.3c0.2,0.2,0.2,0.5,0.2,0.7l-1.6,9.2c-0.1,0.4-0.4,0.7-0.9,0.7H424l-1.8,10.5H440c0.3,0,0.5,0.1,0.7,0.3
				c0.2,0.2,0.2,0.5,0.2,0.7l-1.6,9.2C439.2,69.6,438.8,69.9,438.4,69.9 M445.3,68.1h7.4l5.1-28.8h-7.4L445.3,68.1z M453.4,69.9
				h-9.2c-0.3,0-0.5-0.1-0.7-0.3c-0.2-0.2-0.2-0.5-0.2-0.7l5.4-30.6c0.1-0.4,0.4-0.7,0.9-0.7h9.2c0.3,0,0.5,0.1,0.7,0.3
				c0.2,0.2,0.2,0.5,0.2,0.7l-5.4,30.6C454.2,69.6,453.8,69.9,453.4,69.9 M479.7,68.1h7.4l4-22.7c0.1-0.4,0.1-0.7,0.1-1.1
				c0-1.5-0.5-2.6-1.4-3.6c-1-1-2.2-1.4-3.7-1.4h-20.2l-5.1,28.8h7.4l3.7-20.7c0.1-0.4,0.4-0.7,0.9-0.7h9.7c0.3,0,0.5,0.1,0.7,0.3
				c0.2,0.2,0.2,0.5,0.2,0.7L479.7,68.1z M487.8,69.9h-9.2c-0.3,0-0.5-0.1-0.7-0.3c-0.2-0.2-0.2-0.5-0.2-0.7l3.6-20.4h-7.9
				l-3.7,20.7c-0.1,0.4-0.4,0.7-0.9,0.7h-9.2c-0.3,0-0.5-0.1-0.7-0.3c-0.2-0.2-0.2-0.5-0.2-0.7l5.4-30.6c0.1-0.4,0.4-0.7,0.9-0.7
				h20.9c2,0,3.6,0.7,4.9,2c1.3,1.3,1.9,2.9,1.9,4.9c0,0.5,0,0.9-0.1,1.4l-4.1,23.5C488.6,69.6,488.3,69.9,487.8,69.9 M505.6,39.3
				c-1.8,0-3.4,0.6-4.9,1.9c-1.5,1.3-2.4,2.7-2.7,4.5L495.2,62c-0.1,0.4-0.1,0.7-0.1,1.1c0,1.5,0.5,2.6,1.4,3.6c1,1,2.2,1.4,3.7,1.4
				H514c1.8,0,3.4-0.6,4.9-1.9c1.5-1.3,2.4-2.7,2.7-4.5l1.8-9h-11.9l-0.6,2.7h3.2c0.3,0,0.5,0.1,0.7,0.3c0.2,0.2,0.2,0.5,0.2,0.7
				l-0.7,4.4c-0.1,0.4-0.4,0.8-0.9,0.8h-9.7c-0.3,0-0.5-0.1-0.7-0.3c-0.2-0.2-0.2-0.5-0.2-0.7l2.3-13.1c0.1-0.4,0.4-0.7,0.9-0.7
				h18.9l1080.7-0.3l1.2-7.1H505.6z M514,69.9h-13.8c-2,0-3.6-0.7-4.9-2c-1.3-1.3-1.9-2.9-1.9-4.9c0-0.5,0-0.9,0.1-1.4l2.9-16.3
				c0.4-2.2,1.5-4.1,3.3-5.6c1.8-1.5,3.8-2.3,6-2.3h1102.2c0.3,0,0.5,0.1,0.7,0.3c0.2,0.2,0.2,0.5,0.2,0.7l-1.5,8.8
				c-0.1,0.4-0.4,0.7-0.9,0.8L524.9,48.5l-18.1,0l-2,11.3h7.9l0.4-2.6h-3.3c-0.3,0-0.5-0.1-0.7-0.3c-0.2-0.2-0.2-0.5-0.2-0.7
				l0.9-4.5c0.1-0.4,0.5-0.7,0.9-0.7h13.8c0.3,0,0.5,0.1,0.7,0.3c0.2,0.2,0.2,0.5,0.2,0.7l-2.1,10c-0.4,2.2-1.5,4-3.3,5.6
				C518.2,69.1,516.2,69.9,514,69.9 M399.1,68.1h7.3l-2.1-28.8h-12.4l-12.3,28.8h7.3c0.6-1.5,2.4-5.8,4.2-10.1
				c4.7-11.2,4.7-11.2,5.5-11.2c0.8,0,0.9,0.8,1,1.7c0.1,0.6,0.1,1.4,0.2,2.4c0.2,1.8,0.3,4.2,0.6,7.4
				C398.7,62.3,399,66.4,399.1,68.1 M407.4,69.9h-9.1c-0.5,0-0.9-0.4-0.9-0.8c-0.4-5.6-1-13.7-1.3-18.1c-1.8,4.3-5.3,12.5-7.8,18.4
				c-0.1,0.3-0.5,0.6-0.8,0.6h-9.2c-0.3,0-0.6-0.2-0.7-0.4c-0.2-0.3-0.2-0.6-0.1-0.8l13.1-30.6c0.1-0.3,0.5-0.5,0.8-0.5h13.8
				c0.5,0,0.9,0.4,0.9,0.8l2.2,30.6c0,0.2-0.1,0.5-0.2,0.7C407.9,69.8,407.6,69.9,407.4,69.9"/>
		</g>
	</g>
</g>
</svg>
